<?xml version="1.0" encoding="UTF-8" standalone="no"?>
<!-- Created with Inkscape (http://www.inkscape.org/) -->

<svg
   xmlns:dc="http://purl.org/dc/elements/1.1/"
   xmlns:cc="http://creativecommons.org/ns#"
   xmlns:rdf="http://www.w3.org/1999/02/22-rdf-syntax-ns#"
   xmlns:svg="http://www.w3.org/2000/svg"
   xmlns="http://www.w3.org/2000/svg"
   xmlns:sodipodi="http://sodipodi.sourceforge.net/DTD/sodipodi-0.dtd"
   xmlns:inkscape="http://www.inkscape.org/namespaces/inkscape"
   width="96.249992mm"
   height="37.541656mm"
   viewBox="0 0 96.249992 37.541656"
   version="1.1"
   id="svg9199"
   inkscape:version="0.92.4 5da689c313, 2019-01-14"
   sodipodi:docname="tiling.svg">
  <defs
     id="defs9193" />
  <sodipodi:namedview
     id="base"
     pagecolor="#ffffff"
     bordercolor="#666666"
     borderopacity="1.0"
     inkscape:pageopacity="0.0"
     inkscape:pageshadow="2"
     inkscape:zoom="2.8"
     inkscape:cx="161.64752"
     inkscape:cy="58.026027"
     inkscape:document-units="mm"
     inkscape:current-layer="layer1"
     showgrid="true"
     fit-margin-top="0"
     fit-margin-left="0"
     fit-margin-right="0"
     fit-margin-bottom="0"
     inkscape:window-width="1916"
     inkscape:window-height="1035"
     inkscape:window-x="0"
     inkscape:window-y="20"
     inkscape:window-maximized="0">
    <inkscape:grid
       type="xygrid"
       id="grid9766"
       originx="800.59995"
       originy="-466.98958" />
  </sodipodi:namedview>
  <metadata
     id="metadata9196">
    <rdf:RDF>
      <cc:Work
         rdf:about="">
        <dc:format>image/svg+xml</dc:format>
        <dc:type
           rdf:resource="http://purl.org/dc/dcmitype/StillImage" />
        <dc:title></dc:title>
      </cc:Work>
    </rdf:RDF>
  </metadata>
  <g
     inkscape:label="Layer 1"
     inkscape:groupmode="layer"
     id="layer1"
     transform="translate(800.59998,207.53123)">
    <rect
       style="opacity:1;fill:none;fill-opacity:1;fill-rule:nonzero;stroke:#343239;stroke-width:1;stroke-linecap:round;stroke-linejoin:miter;stroke-miterlimit:3.79999995;stroke-dasharray:none;stroke-dashoffset:0;stroke-opacity:1;paint-order:normal"
       id="rect9768"
       width="36.512501"
       height="36.512501"
       x="-800.09998"
       y="-207.03123" />
    <path
       style="fill:none;fill-rule:evenodd;stroke:#f03d33;stroke-width:0.26458332px;stroke-linecap:butt;stroke-linejoin:miter;stroke-opacity:1"
       d="m -798.51249,-204.38541 h 33.3375 l -33.3375,2.64583 h 33.3375 l -33.3375,2.64583 h 33.3375 l -33.3375,2.64584 h 33.3375 l -33.3375,2.64583 h 33.3375 l -33.3375,2.64583 h 33.3375 l -33.3375,2.64584 h 33.3375 l -33.3375,2.64583 h 33.3375 l -33.3375,2.64583 h 33.3375 l -33.3375,2.64584 h 33.3375 l -33.3375,2.64583 h 33.3375 l -33.3375,2.64583 h 33.3375 l -33.3375,2.64584 h 33.3375"
       id="path9770"
       inkscape:connector-curvature="0" />
    <rect
       style="opacity:1;fill:none;fill-opacity:1;fill-rule:nonzero;stroke:#343239;stroke-width:1;stroke-linecap:round;stroke-linejoin:miter;stroke-miterlimit:3.79999995;stroke-dasharray:none;stroke-dashoffset:0;stroke-opacity:1;paint-order:normal"
       id="rect9768-2"
       width="36.512501"
       height="36.512501"
       x="-741.36249"
       y="-207.03123" />
    <path
       style="fill:none;fill-rule:evenodd;stroke:#f03d33;stroke-width:0.26458332px;stroke-linecap:butt;stroke-linejoin:miter;stroke-opacity:1"
       d="m -739.77499,-204.38541 15.87499,-1e-5 -15.87499,2.64584 15.87499,-1e-5 -15.87499,2.64584 15.87499,-1e-5 -15.87499,2.64585 15.87499,-1e-5 -15.87499,2.64584 15.87499,-1e-5 -15.87499,2.64584 15.87499,-1e-5 -15.87499,2.64585 15.87499,-1e-5 1.5875,-15.87499 h 15.87501 l -15.87501,2.64583 h 15.87501 l -15.87501,2.64583 h 15.87501 l -15.87501,2.64584 h 15.87501 l -15.87501,2.64583 h 15.87501 l -15.87501,2.64583 h 15.87501 l -15.87501,2.64584 h 15.87501 l -33.3375,2.64583 15.87499,-1e-5 -15.87499,2.64584 15.87499,-1e-5 -15.87499,2.64585 15.87499,-1e-5 -15.87499,2.64584 15.87499,-1e-5 -15.87499,2.64584 15.87499,-1e-5 -15.87499,2.64585 15.87499,-1e-5 1.5875,-13.22916 h 15.87501 l -15.87501,2.64583 h 15.87501 l -15.87501,2.64584 h 15.87501 l -15.87501,2.64583 h 15.87501 l -15.87501,2.64583 h 15.87501 l -15.87501,2.64584 h 15.87501"
       id="path9790"
       inkscape:connector-curvature="0"
       sodipodi:nodetypes="cccccccccccccccccccccccccccccccccccccccccccccccccccc" />
    <path
       style="fill:none;fill-rule:evenodd;stroke:#000000;stroke-width:0.26458332px;stroke-linecap:butt;stroke-linejoin:miter;stroke-opacity:1"
       d="m -723.10624,-207.03125 v 37.04167"
       id="path9792"
       inkscape:connector-curvature="0" />
    <path
       style="fill:none;fill-rule:evenodd;stroke:#000000;stroke-width:0.26458332px;stroke-linecap:butt;stroke-linejoin:miter;stroke-opacity:1"
       d="m -704.5854,-187.1875 h -37.04167"
       id="path9792-1"
       inkscape:connector-curvature="0" />
  </g>
</svg>
